<?xml version="1.0" standalone="no"?>
<!DOCTYPE svg PUBLIC "-//W3C//DTD SVG 20010904//EN"
 "http://www.w3.org/TR/2001/REC-SVG-20010904/DTD/svg10.dtd">
<svg version="1.0" xmlns="http://www.w3.org/2000/svg"
 width="310.000000pt" height="163.000000pt" viewBox="0 0 310.000000 163.000000"
 preserveAspectRatio="xMidYMid meet">

<g transform="translate(0.000000,163.000000) scale(0.100000,-0.100000)"
fill="#000000" stroke="none">
<path d="M1373 1313 c-60 -21 -127 -89 -149 -152 -19 -51 -19 -51 -56 -45 -20
4 -49 3 -64 0 l-27 -7 23 -25 c13 -13 32 -24 42 -24 19 0 19 -1 -1 -26 -21
-27 -29 -94 -11 -94 5 0 24 13 43 29 l33 30 11 -43 c7 -23 30 -63 53 -88 102
-117 259 -126 371 -21 65 61 93 132 86 225 -12 186 -183 302 -354 241z m32
-216 c66 -1 158 0 205 3 l85 5 3 -51 3 -50 -228 1 c-140 0 -231 4 -235 10 -9
12 -10 58 -2 79 4 10 14 14 28 11 11 -3 75 -6 141 -8z"/>
<path d="M1309 1057 c15 -19 66 -23 76 -7 3 6 0 10 -8 10 -8 0 -30 3 -48 7
-31 6 -33 5 -20 -10z"/>
<path d="M1572 1063 c-18 -2 -30 -9 -27 -14 10 -14 61 -11 75 6 10 12 10 15
-1 13 -8 0 -29 -3 -47 -5z"/>
<path d="M342 710 c-93 -57 -98 -214 -7 -270 39 -24 104 -26 145 -5 35 18 37
26 11 49 -15 14 -24 15 -40 7 -58 -31 -121 11 -121 81 0 30 7 46 29 69 33 32
56 36 87 14 19 -13 23 -12 44 10 l22 24 -33 20 c-43 26 -95 27 -137 1z"/>
<path d="M615 717 c-92 -43 -120 -166 -54 -242 39 -44 78 -59 141 -53 44 5 57
11 89 45 51 55 59 107 27 170 -12 26 -35 56 -50 66 -34 25 -113 32 -153 14z
m94 -58 c63 -22 80 -102 32 -150 -40 -39 -82 -39 -122 0 -56 57 -32 126 57
161 1 0 15 -5 33 -11z"/>
<path d="M868 576 l3 -156 70 0 c86 0 130 19 161 68 30 48 31 130 2 169 -41
55 -70 68 -157 71 l-82 4 3 -156z m141 79 c84 -43 50 -175 -45 -175 l-34 0 0
88 c0 49 3 92 7 95 11 11 42 8 72 -8z"/>
<path d="M1158 575 l3 -155 89 0 90 0 0 30 0 30 -60 0 -60 0 0 36 0 36 40 -4
c31 -3 39 0 35 10 -3 8 -5 20 -5 28 0 9 -11 14 -35 14 -33 0 -35 2 -35 35 l0
35 60 0 60 0 0 30 0 30 -92 0 -93 0 3 -155z"/>
<path d="M1428 570 l3 -160 34 0 34 0 3 80 3 81 76 -63 c41 -35 83 -69 92 -77
16 -12 17 -2 17 143 l0 156 -35 0 -35 0 0 -70 c0 -38 -3 -70 -6 -70 -3 0 -46
32 -95 70 -48 39 -90 70 -91 70 -2 0 -2 -72 0 -160z"/>
<path d="M1712 573 l3 -158 38 -3 37 -3 0 160 0 161 -40 0 -41 0 3 -157z"/>
<path d="M1810 571 l0 -161 35 0 35 0 0 80 c0 44 3 80 6 80 3 0 45 -34 94 -75
49 -41 91 -75 94 -75 3 0 6 70 6 155 l0 155 -40 0 -39 0 -3 -70 -3 -70 -80 61
c-44 34 -86 66 -92 72 -10 7 -13 -24 -13 -152z"/>
<path d="M2100 576 c0 -139 -2 -156 -20 -179 -11 -14 -29 -29 -40 -32 -14 -5
-20 -15 -20 -37 0 -29 2 -30 31 -24 43 8 84 40 103 80 13 27 16 67 16 190 l0
156 -35 0 -35 0 0 -154z"/>
<path d="M2272 570 l-83 -160 39 0 c35 0 41 4 52 30 12 29 15 30 76 30 60 0
64 -1 79 -30 13 -25 22 -30 50 -30 19 0 35 2 35 5 0 6 -161 315 -163 315 -1 0
-39 -72 -85 -160z m108 -32 c0 -4 -11 -8 -25 -8 -28 0 -30 3 -14 32 11 21 12
21 25 3 8 -10 14 -22 14 -27z"/>
<path d="M2575 705 c-19 -18 -25 -35 -25 -68 0 -49 14 -67 72 -91 46 -20 55
-34 34 -54 -13 -14 -21 -14 -47 -5 -28 11 -33 10 -50 -10 -25 -30 -24 -33 22
-51 93 -38 175 27 150 119 -5 22 -22 38 -61 60 -56 31 -63 43 -36 60 11 7 23
6 38 -4 19 -12 23 -11 39 10 18 23 18 24 -2 42 -33 27 -104 23 -134 -8z"/>
<path d="M2767 723 c-4 -3 -7 -19 -7 -34 0 -22 6 -30 25 -35 43 -11 73 34 43
64 -13 13 -50 16 -61 5z m58 -33 c0 -18 -6 -26 -23 -28 -24 -4 -38 18 -28 44
3 9 15 14 28 12 17 -2 23 -10 23 -28z"/>
<path d="M2780 692 c0 -10 7 -19 15 -19 8 0 15 9 15 19 0 10 -7 18 -15 18 -8
0 -15 -8 -15 -18z"/>
</g>
</svg>
